<svg id="Build_icon_here" data-name="Build icon here" xmlns="http://www.w3.org/2000/svg" viewBox="0 0 32 32"><defs><linearGradient id="linear-gradient" x1="2661.34" y1="-1373.96" x2="2661.34" y2="-1393.96" gradientTransform="matrix(1 0 0 .98995 -2645.14 1385.74)" gradientUnits="userSpaceOnUse"><stop offset=".05"/><stop offset=".6" stop-opacity="0"/></linearGradient><linearGradient id="linear-gradient-2" y1="32" x2="32" gradientUnits="userSpaceOnUse"><stop offset=".1" stop-color="#08bdba"/><stop offset=".9" stop-color="#0f62fe"/></linearGradient><style>.cls-1{fill:#fff}.cls-5{fill:#001d6c}</style><mask id="mask" x="0" y="0" width="32" height="32" maskUnits="userSpaceOnUse"><path class="cls-1" d="M9.85 23.65L28 5.44v4.6l2-.02v-8h-8v2h4.59L8.54 22.13l1.3 1.52z"/><path transform="rotate(45 16.2 15.69)" fill="url(#linear-gradient)" d="M11.2 5.79h10v19.8h-10z"/><path class="cls-1" d="M1.99 22h8v8h-8zm6 2h-4v4h4z"/></mask></defs><g mask="url(#mask)"><path fill="url(#linear-gradient-2)" d="M0 0h32v32H0z"/></g><path class="cls-5" d="M22.13 25h-9.14v2h9.14a4 4 0 104.86-4.86V13h-2v9.14A4 4 0 0022.13 25zm1.86 1a2 2 0 112 2 2 2 0 01-2-2zM4.99 9.86V19h2V9.86A4 4 0 009.84 7H19V5H9.84A4 4 0 105 9.86zM3.99 6a2 2 0 112 2 2 2 0 01-2-2z"/></svg>